<svg
  width="1016"
  height="312"
  viewBox="0 0 1016 312"
  fill="none"
  xmlns="http://www.w3.org/2000/svg"
>
  <path
    d="M118 40L139.5 19L193 54L274 140.5L252.5 267.5L38.5 264.5L27 214.5V140.5L43.5 94L118 40Z"
    fill="white"
  />
  <mask
    id="path-2-outside-1_5_22"
    maskUnits="userSpaceOnUse"
    x="0"
    y="0"
    width="397"
    height="312"
    fill="black"
  >
    <rect fill="white" width="397" height="312" />
    <path
      d="M142.237 12C152.598 12.0003 161.669 19.9652 161.669 30.5918C161.669 33.4237 161.024 36.0664 159.883 38.4199C197.099 43.6713 229.226 65.3008 249.527 96.0391C252.319 91.9373 254.957 87.403 257.688 82.4854C263.21 72.5456 280.22 18.0106 297.205 16.9707C301.018 16.7376 306.218 38.1156 307.951 48.5146C313.382 40.0798 325.075 23.9035 328.402 23.9033C335.682 23.9033 325.283 76.5903 328.402 77.6318C331.522 78.6717 354.054 88.0313 348.161 118.882C346.373 128.241 358.169 128.12 357.867 132.401C355.787 161.865 330.829 171.571 293.738 167.758C285.766 166.939 276.407 180.237 289.579 184.05C291.578 184.628 340.356 191.44 351.001 195.075C361.646 198.71 389.962 206.469 384.119 221.233C378.531 235.353 361.254 224.82 351.614 221.727C341.461 218.469 332.629 216.367 323.271 216.714C316.447 216.967 282.176 218.515 267.059 218.7C266.984 219.124 266.906 219.549 266.829 219.977C278.016 223.836 294.733 229.13 303.444 235.353C313.15 242.285 336.375 259.964 328.749 272.79C321.123 285.615 305.524 272.096 303.444 270.017C293.739 260.311 293.738 253.032 262.194 248.179C261.771 248.114 261.35 248.051 260.93 247.987C259.958 252.009 258.917 256.113 257.792 260.277H261.229C267.324 260.278 272.265 265.219 272.265 271.314V288.103C272.265 294.198 267.324 299.139 261.229 299.14H23.2471C17.1517 299.14 12.21 294.198 12.21 288.103V271.314C12.21 265.219 17.1517 260.277 23.2471 260.277H26.6816C15.9449 220.519 12.401 186.47 12.0029 173.268L12 173.178V173.087C12.0001 104.49 60.8266 47.4175 124.591 38.4199C123.45 36.0665 122.807 33.4236 122.807 30.5918C122.807 19.9652 131.877 12.0002 142.237 12ZM24.21 287.14H260.265V272.277H24.21V287.14ZM24.2617 178.084C25.2993 193.51 29.2392 224.695 39.123 260.277H78.2656C68.8433 227.973 65.2432 199.864 64.0869 183.221C48.41 181.95 34.595 180.252 24.2617 178.084ZM201.532 227.033C201.178 226.188 182.386 229.393 161.323 231.54C139.234 233.792 112.1 238.964 106.207 247.485C102.952 252.193 99.7631 256.44 96.6455 260.277H193.692C197.137 248.871 199.826 237.968 201.919 227.909C201.785 227.622 201.655 227.331 201.532 227.033ZM212.008 237.941C210.375 245.081 208.46 252.56 206.209 260.277H245.351C246.671 255.524 247.882 250.849 248.997 246.28C233.314 244.118 220.611 242.424 212.008 237.941ZM53.5039 91.1963C36.5888 111.295 25.7848 137.205 24.2031 165.783C33.5152 167.957 47.1815 169.77 63.6338 171.143C63.8952 141.831 70.0643 116.675 79.8994 96.1807C70.0932 94.8547 61.1384 93.1936 53.5039 91.1963ZM324.479 101.969C318.735 101.969 312 108.798 312 117.221C312 125.644 318.735 132.472 324.479 132.473C330.222 132.473 334.878 125.644 334.878 117.221C334.878 108.797 330.222 101.969 324.479 101.969ZM92.5625 97.6611C87.4511 107.489 83.2379 118.663 80.292 131.151C101.037 122.427 124.141 115.65 143.298 116.803C178.578 118.925 191.824 117.151 199.453 115.053C197.274 108.921 194.772 103.181 192.003 97.8379C176.214 99.4018 158.979 100.127 141.904 100.075C125.034 100.024 108.073 99.2142 92.5625 97.6611ZM329.931 112.394C331.075 112.493 331.735 115.666 331.404 119.48C331.074 123.295 329.878 126.307 328.733 126.208C327.589 126.109 326.929 122.936 327.26 119.121C327.59 115.307 328.786 112.294 329.931 112.394ZM231.002 91.2354C223.332 93.3258 214.401 95.0262 204.659 96.3574C206.973 101.196 209.083 106.295 210.959 111.646C213.32 111.252 216.2 111.074 220.251 111.256C226.837 111.256 235.888 111.565 241.396 106.057C241.459 105.994 241.519 105.931 241.581 105.868C238.397 100.713 234.859 95.8226 231.002 91.2354ZM142.237 49.5898C126.916 55.5962 111.454 67.9109 99.2881 86.2363C112.739 87.4014 127.286 88.031 141.94 88.0752C156.821 88.12 171.616 87.5613 185.297 86.4033C173.114 67.9858 157.605 55.6144 142.237 49.5898ZM171.242 52.9473C181.438 61.2029 190.815 71.9577 198.606 85.0391C206.976 84.0199 214.724 82.7457 221.563 81.2119C207.448 67.829 190.246 57.9756 171.242 52.9473ZM113.231 52.9473C94.2704 57.9643 77.1031 67.7851 63.0059 81.1221C69.8298 82.594 77.5834 83.8443 85.9736 84.8623C93.7441 71.8611 103.082 61.1656 113.231 52.9473ZM142.237 24C137.763 24.0002 134.807 27.3103 134.807 30.5918C134.807 33.8732 137.763 37.1834 142.237 37.1836C146.712 37.1834 149.669 33.8732 149.669 30.5918C149.669 27.3104 146.712 24.0002 142.237 24Z"
    />
  </mask>
  <path
    d="M142.237 12C152.598 12.0003 161.669 19.9652 161.669 30.5918C161.669 33.4237 161.024 36.0664 159.883 38.4199C197.099 43.6713 229.226 65.3008 249.527 96.0391C252.319 91.9373 254.957 87.403 257.688 82.4854C263.21 72.5456 280.22 18.0106 297.205 16.9707C301.018 16.7376 306.218 38.1156 307.951 48.5146C313.382 40.0798 325.075 23.9035 328.402 23.9033C335.682 23.9033 325.283 76.5903 328.402 77.6318C331.522 78.6717 354.054 88.0313 348.161 118.882C346.373 128.241 358.169 128.12 357.867 132.401C355.787 161.865 330.829 171.571 293.738 167.758C285.766 166.939 276.407 180.237 289.579 184.05C291.578 184.628 340.356 191.44 351.001 195.075C361.646 198.71 389.962 206.469 384.119 221.233C378.531 235.353 361.254 224.82 351.614 221.727C341.461 218.469 332.629 216.367 323.271 216.714C316.447 216.967 282.176 218.515 267.059 218.7C266.984 219.124 266.906 219.549 266.829 219.977C278.016 223.836 294.733 229.13 303.444 235.353C313.15 242.285 336.375 259.964 328.749 272.79C321.123 285.615 305.524 272.096 303.444 270.017C293.739 260.311 293.738 253.032 262.194 248.179C261.771 248.114 261.35 248.051 260.93 247.987C259.958 252.009 258.917 256.113 257.792 260.277H261.229C267.324 260.278 272.265 265.219 272.265 271.314V288.103C272.265 294.198 267.324 299.139 261.229 299.14H23.2471C17.1517 299.14 12.21 294.198 12.21 288.103V271.314C12.21 265.219 17.1517 260.277 23.2471 260.277H26.6816C15.9449 220.519 12.401 186.47 12.0029 173.268L12 173.178V173.087C12.0001 104.49 60.8266 47.4175 124.591 38.4199C123.45 36.0665 122.807 33.4236 122.807 30.5918C122.807 19.9652 131.877 12.0002 142.237 12ZM24.21 287.14H260.265V272.277H24.21V287.14ZM24.2617 178.084C25.2993 193.51 29.2392 224.695 39.123 260.277H78.2656C68.8433 227.973 65.2432 199.864 64.0869 183.221C48.41 181.95 34.595 180.252 24.2617 178.084ZM201.532 227.033C201.178 226.188 182.386 229.393 161.323 231.54C139.234 233.792 112.1 238.964 106.207 247.485C102.952 252.193 99.7631 256.44 96.6455 260.277H193.692C197.137 248.871 199.826 237.968 201.919 227.909C201.785 227.622 201.655 227.331 201.532 227.033ZM212.008 237.941C210.375 245.081 208.46 252.56 206.209 260.277H245.351C246.671 255.524 247.882 250.849 248.997 246.28C233.314 244.118 220.611 242.424 212.008 237.941ZM53.5039 91.1963C36.5888 111.295 25.7848 137.205 24.2031 165.783C33.5152 167.957 47.1815 169.77 63.6338 171.143C63.8952 141.831 70.0643 116.675 79.8994 96.1807C70.0932 94.8547 61.1384 93.1936 53.5039 91.1963ZM324.479 101.969C318.735 101.969 312 108.798 312 117.221C312 125.644 318.735 132.472 324.479 132.473C330.222 132.473 334.878 125.644 334.878 117.221C334.878 108.797 330.222 101.969 324.479 101.969ZM92.5625 97.6611C87.4511 107.489 83.2379 118.663 80.292 131.151C101.037 122.427 124.141 115.65 143.298 116.803C178.578 118.925 191.824 117.151 199.453 115.053C197.274 108.921 194.772 103.181 192.003 97.8379C176.214 99.4018 158.979 100.127 141.904 100.075C125.034 100.024 108.073 99.2142 92.5625 97.6611ZM329.931 112.394C331.075 112.493 331.735 115.666 331.404 119.48C331.074 123.295 329.878 126.307 328.733 126.208C327.589 126.109 326.929 122.936 327.26 119.121C327.59 115.307 328.786 112.294 329.931 112.394ZM231.002 91.2354C223.332 93.3258 214.401 95.0262 204.659 96.3574C206.973 101.196 209.083 106.295 210.959 111.646C213.32 111.252 216.2 111.074 220.251 111.256C226.837 111.256 235.888 111.565 241.396 106.057C241.459 105.994 241.519 105.931 241.581 105.868C238.397 100.713 234.859 95.8226 231.002 91.2354ZM142.237 49.5898C126.916 55.5962 111.454 67.9109 99.2881 86.2363C112.739 87.4014 127.286 88.031 141.94 88.0752C156.821 88.12 171.616 87.5613 185.297 86.4033C173.114 67.9858 157.605 55.6144 142.237 49.5898ZM171.242 52.9473C181.438 61.2029 190.815 71.9577 198.606 85.0391C206.976 84.0199 214.724 82.7457 221.563 81.2119C207.448 67.829 190.246 57.9756 171.242 52.9473ZM113.231 52.9473C94.2704 57.9643 77.1031 67.7851 63.0059 81.1221C69.8298 82.594 77.5834 83.8443 85.9736 84.8623C93.7441 71.8611 103.082 61.1656 113.231 52.9473ZM142.237 24C137.763 24.0002 134.807 27.3103 134.807 30.5918C134.807 33.8732 137.763 37.1834 142.237 37.1836C146.712 37.1834 149.669 33.8732 149.669 30.5918C149.669 27.3104 146.712 24.0002 142.237 24Z"
    fill="black"
  />
  <path
    d="M142.237 12L142.238 -7.70311e-09L142.237 2.17928e-09L142.237 12ZM161.669 30.5918L173.669 30.5919V30.5918H161.669ZM159.883 38.4199L149.085 33.1845L141.901 48.0015L158.206 50.3022L159.883 38.4199ZM249.527 96.0391L239.514 102.652L249.377 117.586L259.447 102.792L249.527 96.0391ZM257.688 82.4854L247.199 76.6578L247.199 76.6578L257.688 82.4854ZM297.205 16.9707L296.473 4.99306L296.472 4.99313L297.205 16.9707ZM307.951 48.5146L296.114 50.4872L301.222 81.1342L318.041 55.0107L307.951 48.5146ZM328.402 23.9033L328.402 11.9033L328.402 11.9033L328.402 23.9033ZM328.402 77.6318L324.602 89.0141L324.608 89.016L328.402 77.6318ZM348.161 118.882L359.948 121.133L359.948 121.133L348.161 118.882ZM357.867 132.401L369.837 133.246L369.837 133.246L357.867 132.401ZM293.738 167.758L294.965 155.821L294.965 155.821L293.738 167.758ZM289.579 184.05L286.242 195.577L286.244 195.577L289.579 184.05ZM351.001 195.075L354.879 183.719L354.879 183.719L351.001 195.075ZM384.119 221.233L395.277 225.649L395.277 225.649L384.119 221.233ZM351.614 221.727L355.281 210.3L355.281 210.3L351.614 221.727ZM323.271 216.714L322.826 204.722L322.826 204.722L323.271 216.714ZM267.059 218.7L266.912 206.701L256.976 206.823L255.243 216.607L267.059 218.7ZM266.829 219.977L255.019 217.851L253.198 227.968L262.916 231.32L266.829 219.977ZM303.444 235.353L310.419 225.588L310.419 225.588L303.444 235.353ZM328.749 272.79L339.063 278.923L339.063 278.923L328.749 272.79ZM303.444 270.017L294.959 278.502L303.444 270.017ZM262.194 248.179L264.019 236.318L264.019 236.318L262.194 248.179ZM260.93 247.987L262.725 236.122L251.848 234.477L249.265 245.17L260.93 247.987ZM257.792 260.277L246.207 257.149L242.122 272.277H257.792V260.277ZM261.229 260.277L261.229 248.277H261.229V260.277ZM272.265 271.314L284.265 271.314L284.265 271.314L272.265 271.314ZM272.265 288.103L284.265 288.103V288.103H272.265ZM261.229 299.14L261.229 311.14L261.229 311.14L261.229 299.14ZM23.2471 299.14L23.2471 311.14H23.2471V299.14ZM12.21 288.103L24.21 288.103V288.103H12.21ZM12.21 271.314L0.209961 271.314V271.314H12.21ZM23.2471 260.277L23.2471 272.277H23.2471V260.277ZM26.6816 260.277V272.277H42.3521L38.2666 257.149L26.6816 260.277ZM12.0029 173.268L23.9975 172.906L23.997 172.891L23.9966 172.876L12.0029 173.268ZM12 173.178H0V173.373L0.00637488 173.569L12 173.178ZM12 173.087L0 173.087V173.087H12ZM124.591 38.4199L126.268 50.3022L142.572 48.0015L135.389 33.185L124.591 38.4199ZM122.807 30.5918L110.807 30.5918L110.807 30.5919L122.807 30.5918ZM24.21 287.14H12.21V299.14H24.21V287.14ZM260.265 287.14V299.14H272.265V287.14H260.265ZM260.265 272.277H272.265V260.277H260.265V272.277ZM24.21 272.277V260.277H12.21V272.277H24.21ZM24.2617 178.084L26.726 166.34L11.2259 163.087L12.2888 178.889L24.2617 178.084ZM39.123 260.277L27.5608 263.489L30.002 272.277H39.123V260.277ZM78.2656 260.277V272.277H94.2657L89.7856 256.917L78.2656 260.277ZM64.0869 183.221L76.0581 182.389L75.3428 172.093L65.0561 171.26L64.0869 183.221ZM201.532 227.033L212.623 222.452L212.611 222.422L212.598 222.392L201.532 227.033ZM161.323 231.54L162.54 243.478L162.54 243.478L161.323 231.54ZM106.207 247.485L116.077 254.311L116.077 254.311L106.207 247.485ZM96.6455 260.277L87.3314 252.711L71.4369 272.277H96.6455V260.277ZM193.692 260.277V272.277H202.604L205.18 263.746L193.692 260.277ZM201.919 227.909L213.667 230.354L214.48 226.447L212.792 222.831L201.919 227.909ZM212.008 237.941L217.553 227.299L203.773 220.12L200.31 235.267L212.008 237.941ZM206.209 260.277L194.689 256.917L190.209 272.277H206.209V260.277ZM245.351 260.277V272.277H254.472L256.913 263.489L245.351 260.277ZM248.997 246.28L260.655 249.126L263.808 236.209L250.636 234.393L248.997 246.28ZM53.5039 91.1963L56.5411 79.587L49.2053 77.6679L44.3228 83.4693L53.5039 91.1963ZM24.2031 165.783L12.2215 165.12L11.6648 175.179L21.4751 177.469L24.2031 165.783ZM63.6338 171.143L62.6363 183.101L75.518 184.176L75.6333 171.25L63.6338 171.143ZM79.8994 96.1807L90.7182 101.372L97.8556 86.4994L81.5073 84.2889L79.8994 96.1807ZM324.479 101.969L324.479 89.9687L324.478 89.9688L324.479 101.969ZM312 117.221L300 117.221V117.221H312ZM324.479 132.473L324.478 144.473H324.479V132.473ZM334.878 117.221L346.878 117.221L346.878 117.221L334.878 117.221ZM92.5625 97.6611L93.7581 85.7208L85.668 84.9108L81.9164 92.124L92.5625 97.6611ZM80.292 131.151L68.6126 128.396L63.1958 151.359L84.9438 142.213L80.292 131.151ZM143.298 116.803L142.577 128.781L142.577 128.781L143.298 116.803ZM199.453 115.053L202.635 126.623L215.084 123.2L210.76 111.034L199.453 115.053ZM192.003 97.8379L202.658 92.317L198.915 85.0945L190.82 85.8963L192.003 97.8379ZM141.904 100.075L141.868 112.075L141.868 112.075L141.904 100.075ZM329.931 112.394L330.97 100.439L330.967 100.438L329.931 112.394ZM331.404 119.48L343.359 120.517L343.359 120.516L331.404 119.48ZM328.733 126.208L327.697 138.163L327.698 138.163L328.733 126.208ZM327.26 119.121L315.305 118.085L315.305 118.085L327.26 119.121ZM231.002 91.2354L240.186 83.5121L235.248 77.6402L227.846 79.6577L231.002 91.2354ZM204.659 96.3574L203.034 84.4679L186.737 86.6951L193.833 101.535L204.659 96.3574ZM210.959 111.646L199.635 115.617L202.976 125.142L212.933 123.482L210.959 111.646ZM220.251 111.256L219.714 123.244L219.982 123.256H220.251V111.256ZM241.396 106.057L249.882 114.542L249.882 114.542L241.396 106.057ZM241.581 105.868L250.108 114.311L256.755 107.599L251.79 99.5618L241.581 105.868ZM142.237 49.5898L146.617 38.4177L142.237 36.7007L137.857 38.4177L142.237 49.5898ZM99.2881 86.2363L89.2906 79.5993L78.1063 96.4465L98.2525 98.1916L99.2881 86.2363ZM141.94 88.0752L141.904 100.075L141.904 100.075L141.94 88.0752ZM185.297 86.4033L186.309 98.3606L206.465 96.6545L195.305 79.7831L185.297 86.4033ZM171.242 52.9473L174.312 41.3465L163.691 62.2735L171.242 52.9473ZM198.606 85.0391L188.297 91.1798L192.297 97.896L200.057 96.9511L198.606 85.0391ZM221.563 81.2119L224.189 92.9211L246.158 87.9944L229.82 72.5037L221.563 81.2119ZM113.231 52.9473L120.783 62.2734L110.162 41.3465L113.231 52.9473ZM63.0059 81.1221L54.7589 72.405L38.2203 88.0516L60.4756 92.8523L63.0059 81.1221ZM85.9736 84.8623L84.5283 96.7749L92.2722 97.7145L96.2741 91.0186L85.9736 84.8623ZM142.237 24L142.238 12L142.237 12L142.237 24ZM134.807 30.5918L122.807 30.5918L122.807 30.5922L134.807 30.5918ZM142.237 37.1836L142.237 49.1836L142.238 49.1836L142.237 37.1836ZM149.669 30.5918L161.669 30.5922V30.5918H149.669ZM142.237 12L142.237 24C146.784 24.0001 149.669 27.3778 149.669 30.5918H161.669H173.669C173.669 12.5526 158.412 0.000390669 142.238 3.50033e-09L142.237 12ZM161.669 30.5918L149.669 30.5917C149.669 31.5708 149.452 32.4272 149.085 33.1845L159.883 38.4199L170.681 43.6553C172.596 39.7056 173.669 35.2765 173.669 30.5919L161.669 30.5918ZM159.883 38.4199L158.206 50.3022C191.79 55.041 220.978 74.5863 239.514 102.652L249.527 96.0391L259.541 89.4257C237.474 56.0153 202.409 32.3017 161.559 26.5376L159.883 38.4199ZM249.527 96.0391L259.447 102.792C262.551 98.232 265.398 93.3179 268.178 88.3129L257.688 82.4854L247.199 76.6578C244.515 81.4881 242.088 85.6426 239.607 89.2866L249.527 96.0391ZM257.688 82.4854L268.178 88.3129C270.026 84.987 272.508 78.6929 274.93 72.6963C277.568 66.1663 280.631 58.6676 284.005 51.5025C287.426 44.2364 290.905 37.8872 294.234 33.4583C295.894 31.2503 297.226 29.9141 298.155 29.2021C299.103 28.4763 298.986 28.8841 297.938 28.9483L297.205 16.9707L296.472 4.99313C291.178 5.31725 286.814 7.65681 283.559 10.1513C280.285 12.6595 277.459 15.8321 275.049 19.0383C270.239 25.4378 265.936 33.5385 262.291 41.2786C258.599 49.1197 255.313 57.1835 252.677 63.7069C249.827 70.7636 248.112 75.0138 247.199 76.6578L257.688 82.4854ZM297.205 16.9707L297.937 28.9483C292.605 29.2743 289.76 25.8489 289.666 25.7415C289.167 25.1723 289.145 24.9527 289.484 25.6401C290.097 26.8846 290.934 29.1161 291.868 32.2176C293.695 38.2792 295.32 45.7192 296.114 50.4872L307.951 48.5146L319.788 46.5421C318.85 40.911 317.008 32.4625 314.848 25.2936C313.789 21.7799 312.503 18.0607 311.015 15.0374C310.302 13.5909 309.235 11.6582 307.716 9.92386C306.6 8.65135 302.758 4.60887 296.473 4.99306L297.205 16.9707ZM307.951 48.5146L318.041 55.0107C320.586 51.0573 324.647 45.2235 328.39 40.4736C330.287 38.0667 331.893 36.2069 333.05 35.0498C333.652 34.4484 333.859 34.3139 333.719 34.4126C333.644 34.4661 333.248 34.7443 332.58 35.043C331.996 35.3038 330.5 35.9032 328.403 35.9033L328.402 23.9033L328.402 11.9033C323.954 11.9036 320.727 14.2061 319.862 14.8172C318.425 15.8336 317.13 17.0288 316.083 18.0758C313.943 20.2154 311.661 22.9268 309.54 25.6184C305.248 31.0654 300.747 37.5372 297.862 42.0186L307.951 48.5146ZM328.402 23.9033V35.9033C324.654 35.9033 321.875 33.9933 320.381 32.2151C319.176 30.7815 318.848 29.5432 318.839 29.5118C318.803 29.3882 318.993 30.159 319.037 32.3881C319.119 36.559 318.671 42.5383 318.019 49.2099C317.408 55.4656 316.579 62.657 316.151 67.8039C315.936 70.3972 315.767 73.0555 315.807 75.2454C315.826 76.2572 315.894 77.8134 316.246 79.422C316.416 80.2003 316.785 81.6349 317.648 83.1938C318.468 84.6771 320.515 87.6497 324.602 89.0141L328.402 77.6318L332.203 66.2496C336.094 67.5489 337.973 70.3555 338.65 71.5784C339.368 72.8768 339.618 73.9564 339.691 74.2916C339.849 75.014 339.813 75.3315 339.803 74.8029C339.787 73.9122 339.862 72.2834 340.069 69.7908C340.486 64.766 341.217 58.5904 341.906 51.5441C342.553 44.9138 343.145 37.6563 343.032 31.9158C342.979 29.1892 342.762 25.8357 341.889 22.8266C341.462 21.3526 340.609 18.9814 338.755 16.7754C336.612 14.225 333.061 11.9033 328.402 11.9033V23.9033ZM328.402 77.6318L324.608 89.016C324.588 89.0096 325.744 89.4166 327.368 90.4113C328.963 91.3879 330.814 92.811 332.453 94.7725C335.383 98.2793 338.66 104.664 336.374 116.63L348.161 118.882L359.948 121.133C363.555 102.249 358.512 88.5287 350.87 79.3832C343.681 70.78 335.033 67.193 332.197 66.2476L328.402 77.6318ZM348.161 118.882L336.374 116.63C335.419 121.632 336.181 126.489 338.765 130.66C341.079 134.396 344.262 136.578 346.111 137.73C347.049 138.315 348.033 138.862 348.529 139.143C349.189 139.518 349.307 139.603 349.268 139.576C349.265 139.573 348.407 138.992 347.555 137.744C346.524 136.235 345.72 134.059 345.897 131.556L357.867 132.401L369.837 133.246C370.382 125.525 364.936 121.269 363.185 120.022C362.111 119.258 361.016 118.635 360.386 118.277C359.592 117.826 359.209 117.614 358.803 117.361C357.965 116.839 358.553 117.029 359.167 118.021C360.052 119.449 360.01 120.811 359.948 121.133L348.161 118.882ZM357.867 132.401L345.897 131.556C345.135 142.354 340.642 148.246 333.515 151.85C325.386 155.963 312.594 157.633 294.965 155.821L293.738 167.758L292.511 179.695C311.973 181.696 330.206 180.42 344.348 173.267C359.493 165.606 368.52 151.913 369.837 133.246L357.867 132.401ZM293.738 167.758L294.965 155.821C289.497 155.259 284.673 157.14 281.232 159.427C277.758 161.735 274.676 165.105 272.815 169.18C270.936 173.294 269.93 179.139 272.734 184.977C275.544 190.825 280.911 194.033 286.242 195.577L289.579 184.05L292.916 172.523C291.661 172.16 293.259 172.276 294.368 174.584C295.471 176.882 294.834 178.739 294.645 179.153C294.536 179.391 294.456 179.473 294.473 179.454C294.475 179.451 294.484 179.442 294.497 179.43C294.51 179.419 294.518 179.414 294.514 179.417C294.51 179.419 294.483 179.437 294.426 179.464C294.37 179.491 294.27 179.533 294.122 179.577C293.837 179.661 293.279 179.774 292.512 179.695L293.738 167.758ZM289.579 184.05L286.244 195.577C287.13 195.833 288.171 196.007 288.404 196.048C288.96 196.146 289.66 196.261 290.449 196.388C292.038 196.644 294.186 196.977 296.688 197.364C301.72 198.143 308.292 199.155 315.13 200.262C321.979 201.371 329.012 202.561 334.955 203.69C341.188 204.874 345.397 205.842 347.123 206.431L351.001 195.075L354.879 183.719C351.282 182.491 345.402 181.245 339.433 180.111C333.174 178.922 325.891 177.692 318.965 176.571C312.028 175.448 305.367 174.422 300.358 173.647C297.839 173.257 295.765 172.935 294.262 172.693C293.506 172.571 292.942 172.478 292.559 172.41C291.852 172.286 292.278 172.338 292.915 172.523L289.579 184.05ZM351.001 195.075L347.123 206.431C353.255 208.525 361.469 210.912 367.943 214.486C371.179 216.273 372.623 217.664 373.071 218.303C373.205 218.495 373.013 218.288 372.934 217.736C372.846 217.13 372.986 216.756 372.961 216.818L384.119 221.233L395.277 225.649C398.396 217.768 396.762 210.306 392.742 204.554C389.19 199.473 383.986 195.929 379.543 193.475C370.658 188.571 359.391 185.26 354.879 183.719L351.001 195.075ZM384.119 221.233L372.961 216.818C372.647 217.611 372.818 216.84 373.859 216.453C374.307 216.287 373.882 216.6 371.759 216.172C369.738 215.764 367.319 214.931 364.358 213.769C361.857 212.788 358.172 211.228 355.281 210.3L351.614 221.727L347.948 233.153C349.876 233.772 351.966 234.688 355.591 236.111C358.755 237.352 362.812 238.85 367.014 239.698C371.113 240.525 376.658 241.016 382.218 238.951C388.371 236.665 392.797 231.916 395.277 225.649L384.119 221.233ZM351.614 221.727L355.281 210.3C344.731 206.915 334.301 204.297 322.826 204.722L323.271 216.714L323.715 228.706C330.958 228.437 338.192 230.022 347.948 233.153L351.614 221.727ZM323.271 216.714L322.826 204.722C315.737 204.985 281.834 206.518 266.912 206.701L267.059 218.7L267.206 230.699C282.519 230.512 317.156 228.949 323.715 228.706L323.271 216.714ZM267.059 218.7L255.243 216.607C255.171 217.011 255.102 217.387 255.019 217.851L266.829 219.977L278.639 222.102C278.71 221.712 278.796 221.237 278.875 220.793L267.059 218.7ZM266.829 219.977L262.916 231.32C268.745 233.332 275.341 235.492 281.729 237.967C288.266 240.501 293.419 242.938 296.469 245.117L303.444 235.353L310.419 225.588C304.759 221.544 297.197 218.223 290.402 215.589C283.456 212.898 276.1 210.481 270.743 208.633L266.829 219.977ZM303.444 235.353L296.469 245.117C301.251 248.533 308.502 254.013 313.59 259.792C316.16 262.71 317.532 264.994 318.058 266.489C318.475 267.674 318.056 267.294 318.435 266.657L328.749 272.79L339.063 278.923C343.255 271.874 342.792 264.474 340.696 258.52C338.71 252.877 335.099 247.902 331.602 243.931C324.558 235.931 315.344 229.105 310.419 225.588L303.444 235.353ZM328.749 272.79L318.435 266.657C318.184 267.078 318.14 266.998 318.446 266.772C318.776 266.53 319.188 266.357 319.56 266.284C320.128 266.173 319.879 266.411 318.457 265.845C317.141 265.32 315.649 264.433 314.25 263.418C313.584 262.935 313.014 262.477 312.582 262.11C312.124 261.722 311.905 261.506 311.93 261.531L303.444 270.017L294.959 278.502C296.571 280.114 302.336 285.257 309.576 288.141C313.267 289.611 318.479 290.954 324.181 289.835C330.437 288.608 335.598 284.751 339.063 278.923L328.749 272.79ZM303.444 270.017L311.93 261.531C309.879 259.481 308.631 257.872 306.371 255.29C304.258 252.875 301.637 250.092 297.929 247.474C290.51 242.238 280.437 238.844 264.019 236.318L262.194 248.179L260.37 260.039C275.495 262.366 281.195 265.039 284.089 267.082C285.536 268.103 286.707 269.263 288.309 271.094C289.766 272.759 292.157 275.7 294.959 278.502L303.444 270.017ZM262.194 248.179L264.019 236.318C263.578 236.25 263.106 236.18 262.725 236.122L260.93 247.987L259.135 259.852C259.593 259.922 259.964 259.977 260.37 260.039L262.194 248.179ZM260.93 247.987L249.265 245.17C248.316 249.1 247.301 253.099 246.207 257.149L257.792 260.277L269.377 263.406C270.533 259.126 271.601 254.919 272.594 250.805L260.93 247.987ZM257.792 260.277V272.277H261.229V260.277V248.277H257.792V260.277ZM261.229 260.277L261.228 272.277C260.695 272.277 260.265 271.846 260.265 271.314L272.265 271.314L284.265 271.314C284.265 258.593 273.952 248.278 261.229 248.277L261.229 260.277ZM272.265 271.314H260.265V288.103H272.265H284.265V271.314H272.265ZM272.265 288.103L260.265 288.103C260.265 287.571 260.695 287.14 261.228 287.14L261.229 299.14L261.229 311.14C273.952 311.139 284.265 300.824 284.265 288.103L272.265 288.103ZM261.229 299.14V287.14H23.2471V299.14V311.14H261.229V299.14ZM23.2471 299.14L23.2471 287.14C23.7791 287.14 24.21 287.57 24.21 288.103L12.21 288.103L0.209961 288.103C0.20996 300.825 10.5243 311.14 23.2471 311.14L23.2471 299.14ZM12.21 288.103H24.21V271.314H12.21H0.209961V288.103H12.21ZM12.21 271.314L24.21 271.314C24.21 271.847 23.7791 272.277 23.2471 272.277L23.2471 260.277L23.2471 248.277C10.5243 248.277 0.209962 258.592 0.209961 271.314L12.21 271.314ZM23.2471 260.277V272.277H26.6816V260.277V248.277H23.2471V260.277ZM26.6816 260.277L38.2666 257.149C27.7634 218.255 24.3662 185.134 23.9975 172.906L12.0029 173.268L0.00838207 173.629C0.435873 187.806 4.12639 222.783 15.0966 263.406L26.6816 260.277ZM12.0029 173.268L23.9966 172.876L23.9936 172.787L12 173.178L0.00637488 173.569L0.00930457 173.659L12.0029 173.268ZM12 173.178H24V173.087H12H0V173.178H12ZM12 173.087L24 173.087C24 110.137 68.7479 58.4187 126.268 50.3022L124.591 38.4199L122.914 26.5376C52.9054 36.4164 5.48716e-05 98.8432 0 173.087L12 173.087ZM124.591 38.4199L135.389 33.185C135.024 32.4324 134.807 31.5761 134.807 30.5917L122.807 30.5918L110.807 30.5919C110.807 35.271 111.876 39.7006 113.793 43.6548L124.591 38.4199ZM122.807 30.5918H134.807C134.807 27.377 137.691 24.0001 142.238 24L142.237 12L142.237 2.17928e-09C126.062 0.000308273 110.807 12.5533 110.807 30.5918H122.807ZM24.21 287.14V299.14H260.265V287.14V275.14H24.21V287.14ZM260.265 287.14H272.265V272.277H260.265H248.265V287.14H260.265ZM260.265 272.277V260.277H24.21V272.277V284.277H260.265V272.277ZM24.21 272.277H12.21V287.14H24.21H36.21V272.277H24.21ZM24.2617 178.084L12.2888 178.889C13.3759 195.052 17.4388 227.049 27.5608 263.489L39.123 260.277L50.6853 257.066C41.0396 222.341 37.2227 191.968 36.2347 177.279L24.2617 178.084ZM39.123 260.277V272.277H78.2656V260.277V248.277H39.123V260.277ZM78.2656 260.277L89.7856 256.917C80.643 225.572 77.1655 198.328 76.0581 182.389L64.0869 183.221L52.1158 184.052C53.321 201.4 57.0436 230.374 66.7456 263.637L78.2656 260.277ZM64.0869 183.221L65.0561 171.26C49.5713 170.005 36.3341 168.356 26.726 166.34L24.2617 178.084L21.7974 189.828C32.856 192.149 47.2487 193.896 63.1177 195.182L64.0869 183.221ZM201.532 227.033L212.598 222.392C210.671 217.797 206.794 216.181 205.905 215.825C204.555 215.285 203.398 215.103 202.896 215.034C201.795 214.882 200.822 214.889 200.343 214.898C199.24 214.919 197.991 215.026 196.862 215.139C194.509 215.376 191.281 215.79 187.638 216.266C180.209 217.237 170.432 218.549 160.106 219.602L161.323 231.54L162.54 243.478C173.277 242.384 183.428 241.02 190.749 240.063C194.481 239.576 197.334 239.213 199.262 239.019C199.728 238.972 200.096 238.94 200.378 238.919C200.675 238.897 200.796 238.894 200.79 238.894C200.783 238.894 200.69 238.896 200.533 238.891C200.398 238.886 200.064 238.871 199.612 238.808C199.272 238.761 198.243 238.609 196.986 238.106C196.19 237.788 192.371 236.217 190.466 231.674L201.532 227.033ZM161.323 231.54L160.106 219.602C148.731 220.761 135.78 222.696 124.707 225.538C119.19 226.955 113.79 228.685 109.164 230.823C104.884 232.801 99.6747 235.834 96.3372 240.66L106.207 247.485L116.077 254.311C115.686 254.876 116.078 254.067 119.234 252.608C122.043 251.31 125.912 250.008 130.676 248.785C140.166 246.348 151.827 244.57 162.54 243.478L161.323 231.54ZM106.207 247.485L96.3372 240.66C93.2464 245.129 90.2422 249.128 87.3314 252.711L96.6455 260.277L105.96 267.844C109.284 263.751 112.657 259.256 116.077 254.311L106.207 247.485ZM96.6455 260.277V272.277H193.692V260.277V248.277H96.6455V260.277ZM193.692 260.277L205.18 263.746C208.736 251.971 211.509 240.725 213.667 230.354L201.919 227.909L190.171 225.465C188.142 235.212 185.537 245.771 182.205 256.809L193.692 260.277ZM201.919 227.909L212.792 222.831C212.718 222.675 212.664 222.551 212.623 222.452L201.532 227.033L190.441 231.614C190.646 232.11 190.852 232.57 191.046 232.987L201.919 227.909ZM212.008 237.941L200.31 235.267C198.726 242.194 196.869 249.443 194.689 256.917L206.209 260.277L217.729 263.637C220.051 255.677 222.025 247.968 223.706 240.616L212.008 237.941ZM206.209 260.277V272.277H245.351V260.277V248.277H206.209V260.277ZM245.351 260.277L256.913 263.489C258.27 258.604 259.512 253.806 260.655 249.126L248.997 246.28L237.339 243.434C236.251 247.892 235.072 252.445 233.788 257.066L245.351 260.277ZM248.997 246.28L250.636 234.393C242.666 233.294 235.987 232.382 230.223 231.218C224.428 230.048 220.382 228.773 217.553 227.299L212.008 237.941L206.463 248.584C212.237 251.592 218.844 253.405 225.473 254.744C232.131 256.088 239.646 257.105 247.358 258.168L248.997 246.28ZM53.5039 91.1963L44.3228 83.4693C25.7582 105.527 13.9489 133.908 12.2215 165.12L24.2031 165.783L36.1848 166.446C37.6207 140.501 47.4195 117.062 62.685 98.9233L53.5039 91.1963ZM24.2031 165.783L21.4751 177.469C31.6487 179.844 46.006 181.714 62.6363 183.101L63.6338 171.143L64.6313 159.184C48.357 157.827 35.3816 156.07 26.9311 154.097L24.2031 165.783ZM63.6338 171.143L75.6333 171.25C75.8802 143.57 81.6989 120.167 90.7182 101.372L79.8994 96.1807L69.0807 90.9888C58.4298 113.183 51.9103 140.092 51.6343 171.036L63.6338 171.143ZM79.8994 96.1807L81.5073 84.2889C72.0235 83.0065 63.5719 81.4264 56.5411 79.587L53.5039 91.1963L50.4667 102.806C58.7049 104.961 68.1629 106.703 78.2915 108.072L79.8994 96.1807ZM324.479 101.969L324.478 89.9688C317.076 89.9692 310.912 94.1016 307.033 98.5589C302.941 103.261 300 109.808 300 117.221L312 117.221L324 117.221C324 116.21 324.426 115.132 325.138 114.313C325.478 113.923 325.739 113.763 325.778 113.743C325.838 113.71 325.399 113.969 324.479 113.969L324.479 101.969ZM312 117.221H300C300 124.633 302.941 131.181 307.033 135.883C310.912 140.34 317.076 144.472 324.478 144.473L324.479 132.473L324.479 120.473C325.399 120.473 325.838 120.731 325.778 120.699C325.739 120.678 325.478 120.519 325.138 120.128C324.426 119.31 324 118.231 324 117.221H312ZM324.479 132.473V144.473C332.485 144.473 338.379 139.705 341.747 134.766C345.156 129.766 346.878 123.526 346.878 117.221H334.878H322.878C322.878 119.339 322.272 120.725 321.917 121.245C321.757 121.481 321.795 121.328 322.201 121.077C322.654 120.796 323.453 120.473 324.479 120.473V132.473ZM334.878 117.221L346.878 117.221C346.878 110.915 345.156 104.676 341.747 99.6757C338.379 94.7364 332.485 89.9688 324.479 89.9688V101.969V113.969C323.453 113.969 322.654 113.646 322.201 113.365C321.795 113.113 321.757 112.961 321.917 113.196C322.272 113.716 322.878 115.103 322.878 117.221L334.878 117.221ZM92.5625 97.6611L81.9164 92.124C76.3314 102.862 71.7787 114.974 68.6126 128.396L80.292 131.151L91.9714 133.906C94.6972 122.352 98.5708 112.115 103.209 103.198L92.5625 97.6611ZM80.292 131.151L84.9438 142.213C105.241 133.677 126.251 127.799 142.577 128.781L143.298 116.803L144.018 104.824C122.031 103.502 96.8325 111.178 75.6402 120.09L80.292 131.151ZM143.298 116.803L142.577 128.781C178.168 130.922 193.036 129.263 202.635 126.623L199.453 115.053L196.271 103.482C190.612 105.039 178.987 106.928 144.018 104.824L143.298 116.803ZM199.453 115.053L210.76 111.034C208.402 104.398 205.683 98.1553 202.658 92.317L192.003 97.8379L181.348 103.359C183.86 108.207 186.146 113.445 188.146 119.072L199.453 115.053ZM192.003 97.8379L190.82 85.8963C175.496 87.4142 158.673 88.1256 141.94 88.0752L141.904 100.075L141.868 112.075C159.285 112.128 176.932 111.389 193.186 109.779L192.003 97.8379ZM141.904 100.075L141.94 88.0752C125.411 88.0255 108.84 87.231 93.7581 85.7208L92.5625 97.6611L91.3669 109.601C107.306 111.197 124.657 112.023 141.868 112.075L141.904 100.075ZM329.931 112.394L328.892 124.348C323.382 123.87 320.852 119.952 320.339 119.077C319.947 118.409 319.739 117.866 319.64 117.579C319.534 117.271 319.488 117.063 319.472 116.987C319.441 116.838 319.543 117.366 319.449 118.444L331.404 119.48L343.359 120.516C343.597 117.781 343.534 114.815 342.969 112.101C342.703 110.822 342.183 108.883 341.041 106.936C340.093 105.319 337.051 100.967 330.97 100.439L329.931 112.394ZM331.404 119.48L319.449 118.444C319.356 119.523 319.165 120.026 319.221 119.884C319.249 119.812 319.331 119.614 319.488 119.33C319.636 119.063 319.934 118.564 320.435 117.974C321.092 117.199 324.259 113.776 329.769 114.253L328.733 126.208L327.698 138.163C333.78 138.69 337.526 134.927 338.739 133.497C340.199 131.775 341.045 129.954 341.527 128.74C342.55 126.163 343.122 123.252 343.359 120.517L331.404 119.48ZM328.733 126.208L329.769 114.253C335.28 114.73 337.811 118.649 338.325 119.524C338.717 120.193 338.925 120.735 339.024 121.023C339.13 121.33 339.176 121.539 339.192 121.615C339.223 121.764 339.121 121.236 339.215 120.157L327.26 119.121L315.305 118.085C315.067 120.821 315.13 123.787 315.695 126.501C315.961 127.78 316.481 129.719 317.623 131.666C318.572 133.284 321.615 137.636 327.697 138.163L328.733 126.208ZM327.26 119.121L339.215 120.157C339.308 119.078 339.499 118.576 339.443 118.718C339.415 118.79 339.333 118.987 339.176 119.272C339.029 119.538 338.73 120.037 338.229 120.628C337.572 121.402 334.405 124.826 328.895 124.349L329.931 112.394L330.967 100.438C324.884 99.9113 321.138 103.675 319.925 105.105C318.465 106.827 317.619 108.647 317.137 109.862C316.114 112.438 315.542 115.349 315.305 118.085L327.26 119.121ZM231.002 91.2354L227.846 79.6577C220.821 81.5724 212.429 83.1841 203.034 84.4679L204.659 96.3574L206.284 108.247C216.373 106.868 225.843 105.079 234.158 102.813L231.002 91.2354ZM204.659 96.3574L193.833 101.535C195.957 105.974 197.9 110.67 199.635 115.617L210.959 111.646L222.283 107.674C220.265 101.92 217.99 96.4186 215.485 91.1801L204.659 96.3574ZM210.959 111.646L212.933 123.482C214.261 123.261 216.269 123.09 219.714 123.244L220.251 111.256L220.788 99.2679C216.131 99.0594 212.379 99.2432 208.985 99.8089L210.959 111.646ZM220.251 111.256V123.256C223.145 123.256 228.194 123.369 233.146 122.567C238.218 121.746 244.649 119.774 249.882 114.542L241.396 106.057L232.911 97.5712C232.635 97.8471 231.787 98.4748 229.31 98.8761C226.713 99.2967 223.943 99.2559 220.251 99.2559V111.256ZM241.396 106.057L249.882 114.542C249.981 114.443 250.065 114.356 250.096 114.324C250.118 114.301 250.122 114.298 250.127 114.292C250.13 114.289 250.122 114.297 250.108 114.311L241.581 105.868L233.054 97.425C233.009 97.4704 232.97 97.5099 232.942 97.5385C232.917 97.5642 232.89 97.5924 232.882 97.6009C232.868 97.6147 232.868 97.6152 232.871 97.6117C232.875 97.6074 232.89 97.5926 232.911 97.5713L241.396 106.057ZM241.581 105.868L251.79 99.5618C248.301 93.9137 244.422 88.549 240.186 83.5121L231.002 91.2354L221.818 98.9586C225.297 103.096 228.492 107.513 231.372 112.175L241.581 105.868ZM142.237 49.5898L137.857 38.4177C119.963 45.4328 102.643 59.4865 89.2906 79.5993L99.2881 86.2363L109.286 92.8733C120.265 76.3353 133.869 65.7596 146.617 60.762L142.237 49.5898ZM99.2881 86.2363L98.2525 98.1916C112.06 99.3876 126.942 100.03 141.904 100.075L141.94 88.0752L141.977 76.0752C127.63 76.032 113.417 75.4153 100.324 74.2811L99.2881 86.2363ZM141.94 88.0752L141.904 100.075C157.096 100.121 172.243 99.5511 186.309 98.3606L185.297 86.4033L184.285 74.4461C170.99 75.5714 156.547 76.1191 141.977 76.0752L141.94 88.0752ZM185.297 86.4033L195.305 79.7831C181.937 59.5717 164.566 45.454 146.617 38.4177L142.237 49.5898L137.857 60.762C150.644 65.7748 164.292 76.3999 175.288 93.0236L185.297 86.4033ZM171.242 52.9473L163.691 62.2735C172.726 69.5893 181.189 79.246 188.297 91.1798L198.606 85.0391L208.916 78.8983C200.441 64.6695 190.15 52.8165 178.793 43.6211L171.242 52.9473ZM198.606 85.0391L200.057 96.9511C208.716 95.8967 216.87 94.5625 224.189 92.9211L221.563 81.2119L218.938 69.5027C212.578 70.929 205.236 72.1431 197.156 73.127L198.606 85.0391ZM221.563 81.2119L229.82 72.5037C214.308 57.797 195.342 46.9109 174.312 41.3465L171.242 52.9473L168.173 64.548C185.15 69.0402 200.588 77.8611 213.307 89.9201L221.563 81.2119ZM113.231 52.9473L110.162 41.3465C89.1791 46.8985 70.2508 57.7486 54.7589 72.405L63.0059 81.1221L71.2528 89.8392C83.9554 77.8217 99.3617 69.0301 116.301 64.548L113.231 52.9473ZM63.0059 81.1221L60.4756 92.8523C67.7399 94.4192 75.8675 95.7242 84.5283 96.7749L85.9736 84.8623L87.419 72.9497C79.2992 71.9645 71.9197 70.7688 65.5362 69.3919L63.0059 81.1221ZM85.9736 84.8623L96.2741 91.0186C103.362 79.1588 111.789 69.556 120.783 62.2734L113.231 52.9473L105.68 43.6211C94.3745 52.7752 84.1258 64.5633 75.6731 78.706L85.9736 84.8623ZM142.237 24L142.237 12C131.683 12.0004 122.807 20.1485 122.807 30.5918H134.807H146.807C146.807 34.4722 143.843 35.9999 142.238 36L142.237 24ZM134.807 30.5918L122.807 30.5922C122.807 41.0348 131.682 49.1831 142.237 49.1836L142.237 37.1836L142.238 25.1836C143.843 25.1837 146.807 26.7116 146.807 30.5914L134.807 30.5918ZM142.237 37.1836L142.238 49.1836C152.79 49.183 161.669 41.037 161.669 30.5922L149.669 30.5918L137.669 30.5914C137.669 26.7093 140.633 25.1837 142.237 25.1836L142.237 37.1836ZM149.669 30.5918H161.669C161.669 20.1463 152.79 12.0006 142.238 12L142.237 24L142.237 36C140.634 35.9999 137.669 34.4744 137.669 30.5918H149.669Z"
    fill="white"
    mask="url(#path-2-outside-1_5_22)"
  />
  <mask
    id="path-4-outside-2_5_22"
    maskUnits="userSpaceOnUse"
    x="407.904"
    y="0.0698242"
    width="609"
    height="311"
    fill="black"
  >
    <rect fill="white" x="407.904" y="0.0698242" width="609" height="311" />
    <path
      d="M560.862 12.0698C565.281 12.0698 568.862 15.6515 568.862 20.0698V196.711C568.862 215.798 566.097 232.672 560.564 247.333C555.309 261.993 546.733 273.749 534.839 282.601C522.944 291.176 507.592 296.432 488.782 298.369C471.438 300.154 450.566 298.529 426.167 293.495C422.501 292.738 419.904 289.485 419.904 285.742V233.828C419.904 228.526 424.97 224.702 430.123 225.948C451.485 231.114 467.443 232.019 477.994 228.662C490.165 224.512 496.251 213.862 496.251 196.711V20.0698C496.251 15.6515 499.833 12.0698 504.251 12.0698H560.862ZM871.651 12.0698C876.07 12.0698 879.651 15.6515 879.651 20.0698V196.711C879.651 215.798 876.886 232.672 871.354 247.333C866.098 261.993 857.522 273.749 845.628 282.601C833.733 291.176 818.381 296.432 799.571 298.369C782.227 300.154 761.355 298.529 736.956 293.495C733.29 292.738 730.693 289.485 730.693 285.742V233.828C730.693 228.526 735.759 224.702 740.912 225.948C762.274 231.114 778.232 232.019 788.783 228.662C800.954 224.512 807.04 213.862 807.04 196.711V20.0698C807.04 15.6515 810.622 12.0698 815.04 12.0698H871.651ZM685.172 12.0698C689.59 12.0699 693.172 15.6516 693.172 20.0698V286.219C693.172 290.637 689.59 294.219 685.172 294.219H628.56C624.141 294.219 620.56 290.638 620.56 286.219V20.0698C620.56 15.6515 624.141 12.0698 628.56 12.0698H685.172ZM995.962 12.0698C1000.38 12.0699 1003.96 15.6516 1003.96 20.0698V286.219C1003.96 290.637 1000.38 294.219 995.962 294.219H939.35C934.931 294.219 931.35 290.638 931.35 286.219V20.0698C931.35 15.6515 934.931 12.0698 939.35 12.0698H995.962Z"
    />
  </mask>
  <path
    d="M560.862 12.0698C565.281 12.0698 568.862 15.6515 568.862 20.0698V196.711C568.862 215.798 566.097 232.672 560.564 247.333C555.309 261.993 546.733 273.749 534.839 282.601C522.944 291.176 507.592 296.432 488.782 298.369C471.438 300.154 450.566 298.529 426.167 293.495C422.501 292.738 419.904 289.485 419.904 285.742V233.828C419.904 228.526 424.97 224.702 430.123 225.948C451.485 231.114 467.443 232.019 477.994 228.662C490.165 224.512 496.251 213.862 496.251 196.711V20.0698C496.251 15.6515 499.833 12.0698 504.251 12.0698H560.862ZM871.651 12.0698C876.07 12.0698 879.651 15.6515 879.651 20.0698V196.711C879.651 215.798 876.886 232.672 871.354 247.333C866.098 261.993 857.522 273.749 845.628 282.601C833.733 291.176 818.381 296.432 799.571 298.369C782.227 300.154 761.355 298.529 736.956 293.495C733.29 292.738 730.693 289.485 730.693 285.742V233.828C730.693 228.526 735.759 224.702 740.912 225.948C762.274 231.114 778.232 232.019 788.783 228.662C800.954 224.512 807.04 213.862 807.04 196.711V20.0698C807.04 15.6515 810.622 12.0698 815.04 12.0698H871.651ZM685.172 12.0698C689.59 12.0699 693.172 15.6516 693.172 20.0698V286.219C693.172 290.637 689.59 294.219 685.172 294.219H628.56C624.141 294.219 620.56 290.638 620.56 286.219V20.0698C620.56 15.6515 624.141 12.0698 628.56 12.0698H685.172ZM995.962 12.0698C1000.38 12.0699 1003.96 15.6516 1003.96 20.0698V286.219C1003.96 290.637 1000.38 294.219 995.962 294.219H939.35C934.931 294.219 931.35 290.638 931.35 286.219V20.0698C931.35 15.6515 934.931 12.0698 939.35 12.0698H995.962Z"
    fill="black"
  />
  <path
    d="M560.564 247.333L549.337 243.096L549.302 243.189L549.268 243.283L560.564 247.333ZM534.839 282.601L541.856 292.335L541.93 292.282L542.003 292.228L534.839 282.601ZM488.782 298.369L490.011 310.306L490.011 310.306L488.782 298.369ZM426.167 293.495L423.742 305.247L423.742 305.247L426.167 293.495ZM419.904 285.742L407.904 285.742L407.904 285.742L419.904 285.742ZM430.123 225.948L432.944 214.284L430.123 225.948ZM477.994 228.662L481.633 240.097L481.75 240.059L481.866 240.02L477.994 228.662ZM871.354 247.333L860.126 243.096L860.091 243.189L860.057 243.283L871.354 247.333ZM845.628 282.601L852.646 292.335L852.719 292.282L852.792 292.228L845.628 282.601ZM799.571 298.369L800.8 310.306L800.8 310.306L799.571 298.369ZM736.956 293.495L734.531 305.247L734.531 305.247L736.956 293.495ZM730.693 285.742L718.693 285.742L718.693 285.742L730.693 285.742ZM740.912 225.948L743.733 214.284L743.733 214.284L740.912 225.948ZM788.783 228.662L792.422 240.097L792.539 240.059L792.655 240.02L788.783 228.662ZM685.172 12.0698L685.172 0.0698242H685.172V12.0698ZM685.172 294.219L685.172 306.219L685.172 306.219L685.172 294.219ZM995.962 12.0698L995.962 0.0698242H995.962V12.0698ZM995.962 294.219L995.962 306.219L995.962 306.219L995.962 294.219ZM560.862 12.0698V24.0698C558.653 24.0698 556.862 22.279 556.862 20.0698H568.862H580.862C580.862 9.02413 571.908 0.0698242 560.862 0.0698242V12.0698ZM568.862 20.0698H556.862V196.711H568.862H580.862V20.0698H568.862ZM568.862 196.711H556.862C556.862 214.657 554.261 230.049 549.337 243.096L560.564 247.333L571.792 251.569C577.933 235.295 580.862 216.939 580.862 196.711H568.862ZM560.564 247.333L549.268 243.283C544.768 255.836 537.574 265.607 527.675 272.974L534.839 282.601L542.003 292.228C555.892 281.892 565.849 268.15 571.861 251.382L560.564 247.333ZM534.839 282.601L527.821 272.867C518.055 279.908 504.865 284.65 487.553 286.432L488.782 298.369L490.011 310.306C510.319 308.215 527.834 302.445 541.856 292.335L534.839 282.601ZM488.782 298.369L487.553 286.432C471.829 288.05 452.26 286.626 428.592 281.742L426.167 293.495L423.742 305.247C448.873 310.433 471.047 312.258 490.011 310.306L488.782 298.369ZM426.167 293.495L428.592 281.742C430.62 282.161 431.904 283.914 431.904 285.742L419.904 285.742L407.904 285.742C407.904 295.055 414.382 303.315 423.742 305.247L426.167 293.495ZM419.904 285.742H431.904V233.828H419.904H407.904V285.742H419.904ZM419.904 233.828H431.904C431.904 236.636 429.366 238.111 427.302 237.611L430.123 225.948L432.944 214.284C420.575 211.292 407.904 220.417 407.904 233.828H419.904ZM430.123 225.948L427.302 237.611C449.07 242.876 467.774 244.506 481.633 240.097L477.994 228.662L474.356 217.227C467.111 219.532 453.901 219.352 432.944 214.284L430.123 225.948ZM477.994 228.662L481.866 240.02C490.574 237.051 497.537 231.51 502.106 223.515C506.516 215.797 508.251 206.585 508.251 196.711H496.251H484.251C484.251 203.988 482.943 208.677 481.268 211.608C479.751 214.264 477.586 216.123 474.122 217.304L477.994 228.662ZM496.251 196.711H508.251V20.0698H496.251H484.251V196.711H496.251ZM496.251 20.0698H508.251C508.251 22.279 506.46 24.0698 504.251 24.0698V12.0698V0.0698242C493.205 0.0698242 484.251 9.02413 484.251 20.0698H496.251ZM504.251 12.0698V24.0698H560.862V12.0698V0.0698242H504.251V12.0698ZM871.651 12.0698V24.0698C869.442 24.0698 867.651 22.279 867.651 20.0698H879.651H891.651C891.651 9.02413 882.697 0.0698242 871.651 0.0698242V12.0698ZM879.651 20.0698H867.651V196.711H879.651H891.651V20.0698H879.651ZM879.651 196.711H867.651C867.651 214.657 865.05 230.049 860.126 243.096L871.354 247.333L882.581 251.569C888.722 235.295 891.651 216.939 891.651 196.711H879.651ZM871.354 247.333L860.057 243.283C855.557 255.836 848.363 265.607 838.464 272.974L845.628 282.601L852.792 292.228C866.681 281.892 876.638 268.15 882.65 251.382L871.354 247.333ZM845.628 282.601L838.61 272.867C828.844 279.908 815.654 284.65 798.342 286.432L799.571 298.369L800.8 310.306C821.108 308.215 838.623 302.445 852.646 292.335L845.628 282.601ZM799.571 298.369L798.342 286.432C782.619 288.05 763.049 286.626 739.381 281.742L736.956 293.495L734.531 305.247C759.662 310.433 781.836 312.258 800.8 310.306L799.571 298.369ZM736.956 293.495L739.381 281.742C741.409 282.161 742.693 283.914 742.693 285.742L730.693 285.742L718.693 285.742C718.693 295.055 725.171 303.315 734.531 305.247L736.956 293.495ZM730.693 285.742H742.693V233.828H730.693H718.693V285.742H730.693ZM730.693 233.828H742.693C742.693 236.636 740.155 238.111 738.091 237.611L740.912 225.948L743.733 214.284C731.364 211.292 718.693 220.417 718.693 233.828H730.693ZM740.912 225.948L738.091 237.611C759.859 242.876 778.563 244.506 792.422 240.097L788.783 228.662L785.145 217.227C777.9 219.532 764.69 219.352 743.733 214.284L740.912 225.948ZM788.783 228.662L792.655 240.02C801.363 237.051 808.326 231.51 812.895 223.515C817.305 215.797 819.04 206.585 819.04 196.711H807.04H795.04C795.04 203.988 793.732 208.677 792.057 211.608C790.54 214.264 788.375 216.123 784.911 217.304L788.783 228.662ZM807.04 196.711H819.04V20.0698H807.04H795.04V196.711H807.04ZM807.04 20.0698H819.04C819.04 22.279 817.249 24.0698 815.04 24.0698V12.0698V0.0698242C803.994 0.0698242 795.04 9.02413 795.04 20.0698H807.04ZM815.04 12.0698V24.0698H871.651V12.0698V0.0698242H815.04V12.0698ZM685.172 12.0698L685.172 24.0698C682.963 24.0698 681.172 22.2793 681.172 20.0698H693.172H705.172C705.172 9.02389 696.217 0.0701061 685.172 0.0698242L685.172 12.0698ZM693.172 20.0698H681.172V286.219H693.172H705.172V20.0698H693.172ZM693.172 286.219H681.172C681.172 284.01 682.963 282.219 685.172 282.219L685.172 294.219L685.172 306.219C696.217 306.219 705.172 297.265 705.172 286.219H693.172ZM685.172 294.219V282.219H628.56V294.219V306.219H685.172V294.219ZM628.56 294.219V282.219C630.769 282.219 632.56 284.01 632.56 286.219H620.56H608.56C608.56 297.265 617.514 306.219 628.56 306.219V294.219ZM620.56 286.219H632.56V20.0698H620.56H608.56V286.219H620.56ZM620.56 20.0698H632.56C632.56 22.279 630.769 24.0698 628.56 24.0698V12.0698V0.0698242C617.514 0.0698242 608.56 9.02413 608.56 20.0698H620.56ZM628.56 12.0698V24.0698H685.172V12.0698V0.0698242H628.56V12.0698ZM995.962 12.0698L995.962 24.0698C993.753 24.0698 991.962 22.2793 991.962 20.0698H1003.96H1015.96C1015.96 9.02389 1007.01 0.0701063 995.962 0.0698242L995.962 12.0698ZM1003.96 20.0698H991.962V286.219H1003.96H1015.96V20.0698H1003.96ZM1003.96 286.219H991.962C991.962 284.01 993.753 282.219 995.962 282.219L995.962 294.219L995.962 306.219C1007.01 306.219 1015.96 297.265 1015.96 286.219H1003.96ZM995.962 294.219V282.219H939.35V294.219V306.219H995.962V294.219ZM939.35 294.219V282.219C941.559 282.219 943.35 284.01 943.35 286.219H931.35H919.35C919.35 297.265 928.304 306.219 939.35 306.219V294.219ZM931.35 286.219H943.35V20.0698H931.35H919.35V286.219H931.35ZM931.35 20.0698H943.35C943.35 22.279 941.559 24.0698 939.35 24.0698V12.0698V0.0698242C928.304 0.0698242 919.35 9.02413 919.35 20.0698H931.35ZM939.35 12.0698V24.0698H995.962V12.0698V0.0698242H939.35V12.0698Z"
    fill="white"
    mask="url(#path-4-outside-2_5_22)"
  />
</svg>
