<svg width="993" height="288" viewBox="0 0 993 288" fill="none" xmlns="http://www.w3.org/2000/svg">
<path d="M548.914 0C553.332 0 556.914 3.58172 556.914 8V184.642C556.914 203.728 554.148 220.602 548.616 235.263C543.361 249.923 534.785 261.68 522.891 270.531C510.996 279.106 495.644 284.362 476.834 286.299C459.49 288.084 438.618 286.46 414.219 281.425C410.553 280.668 407.956 277.415 407.956 273.672V221.758C407.956 216.457 413.022 212.632 418.175 213.878C439.537 219.044 455.494 219.949 466.046 216.592C478.217 212.443 484.303 201.792 484.303 184.642V8C484.303 3.58172 487.884 0 492.303 0H548.914ZM859.703 0C864.121 0 867.703 3.58172 867.703 8V184.642C867.703 203.728 864.938 220.602 859.405 235.263C854.15 249.923 845.574 261.68 833.68 270.531C821.785 279.106 806.433 284.362 787.623 286.299C770.279 288.084 749.407 286.46 725.008 281.425C721.342 280.668 718.745 277.415 718.745 273.672V221.758C718.745 216.457 723.811 212.632 728.964 213.878C750.326 219.044 766.283 219.949 776.835 216.592C789.006 212.443 795.092 201.792 795.092 184.642V8C795.092 3.58172 798.674 0 803.092 0H859.703ZM673.224 0C677.642 0.000112766 681.224 3.58179 681.224 8V274.149C681.224 278.568 677.642 282.149 673.224 282.149H616.611C612.193 282.149 608.611 278.568 608.611 274.149V8C608.611 3.58172 612.193 0 616.611 0H673.224ZM984.014 0C988.432 0.000112829 992.014 3.58179 992.014 8V274.149C992.014 278.568 988.432 282.149 984.014 282.149H927.401C922.983 282.149 919.401 278.568 919.401 274.149V8C919.401 3.58172 922.983 0 927.401 0H984.014Z" fill="black"/>
<path d="M130.237 0.03125C140.598 0.0315002 149.669 7.99646 149.669 18.623C149.669 21.4549 149.024 24.0977 147.883 26.4512C185.099 31.7026 217.226 53.3321 237.527 84.0703C240.319 79.9686 242.957 75.4342 245.688 70.5166C251.21 60.5768 268.22 6.04186 285.205 5.00195C289.018 4.76887 294.218 26.1468 295.951 36.5459C301.382 28.1111 313.075 11.9348 316.402 11.9346C323.682 11.9346 313.283 64.6216 316.402 65.6631C319.522 66.703 342.054 76.0625 336.161 106.913C334.373 116.272 346.169 116.151 345.867 120.433C343.787 149.897 318.829 159.602 281.738 155.789C273.766 154.97 264.407 168.268 277.579 172.081C279.578 172.66 328.356 179.472 339.001 183.106C349.646 186.741 377.962 194.5 372.119 209.265C366.531 223.384 349.254 212.851 339.614 209.758C329.461 206.5 320.629 204.399 311.271 204.745C304.447 204.998 270.176 206.546 255.059 206.731C254.984 207.155 254.906 207.58 254.829 208.008C266.016 211.867 282.733 217.161 291.444 223.384C301.15 230.317 324.375 247.996 316.749 260.821C309.123 273.647 293.524 260.128 291.444 258.048C281.739 248.342 281.738 241.063 250.194 236.21C249.771 236.145 249.35 236.082 248.93 236.019C247.958 240.041 246.917 244.144 245.792 248.309H249.229C255.324 248.309 260.265 253.251 260.265 259.346V276.134C260.265 282.229 255.324 287.171 249.229 287.171H11.2471C5.1517 287.171 0.20996 282.229 0.209961 276.134V259.346C0.209961 253.25 5.15171 248.309 11.2471 248.309H14.6816C3.94488 208.55 0.401044 174.501 0.00292969 161.299L0 161.209V161.118C5.06981e-05 92.5214 48.8266 35.4488 112.591 26.4512C111.45 24.0978 110.807 21.4548 110.807 18.623C110.807 7.99643 119.877 0.0314475 130.237 0.03125ZM12.21 275.171H248.265V260.309H12.21V275.171ZM12.2617 166.115C13.2993 181.541 17.2392 212.726 27.123 248.309H66.2656C56.8433 216.004 53.2432 187.895 52.0869 171.252C36.41 169.982 22.595 168.283 12.2617 166.115ZM189.532 215.064C189.178 214.22 170.386 217.424 149.323 219.571C127.234 221.823 100.1 226.995 94.207 235.517C90.9518 240.224 87.7631 244.471 84.6455 248.309H181.692C185.137 236.902 187.826 226 189.919 215.94C189.785 215.654 189.655 215.362 189.532 215.064ZM200.008 225.973C198.375 233.112 196.46 240.591 194.209 248.309H233.351C234.671 243.556 235.882 238.88 236.997 234.312C221.314 232.149 208.611 230.455 200.008 225.973ZM41.5039 79.2275C24.5888 99.3258 13.7848 125.236 12.2031 153.814C21.5152 155.988 35.1815 157.802 51.6338 159.174C51.8952 129.863 58.0643 104.706 67.8994 84.2119C58.0932 82.886 49.1384 81.2248 41.5039 79.2275ZM312.479 90C306.735 90.0004 300 96.8288 300 105.252C300 113.675 306.735 120.504 312.479 120.504C318.222 120.504 322.878 113.675 322.878 105.252C322.878 96.8285 318.222 90 312.479 90ZM80.5625 85.6924C75.4511 95.52 71.2379 106.694 68.292 119.183C89.037 110.459 112.141 103.682 131.298 104.834C166.578 106.956 179.824 105.182 187.453 103.084C185.274 96.9527 182.772 91.2123 180.003 85.8691C164.214 87.4331 146.979 88.1579 129.904 88.1064C113.034 88.0556 96.0732 87.2455 80.5625 85.6924ZM317.931 100.425C319.075 100.524 319.735 103.697 319.404 107.512C319.074 111.326 317.878 114.338 316.733 114.239C315.589 114.14 314.929 110.967 315.26 107.152C315.59 103.338 316.786 100.326 317.931 100.425ZM219.002 79.2666C211.332 81.357 202.401 83.0574 192.659 84.3887C194.973 89.2277 197.083 94.3261 198.959 99.6768C201.32 99.2831 204.2 99.1057 208.251 99.2871C214.837 99.2871 223.888 99.596 229.396 94.0879C229.459 94.0257 229.519 93.9619 229.581 93.8994C226.397 88.7447 222.859 83.8539 219.002 79.2666ZM130.237 37.6211C114.916 43.6274 99.4537 55.9422 87.2881 74.2676C100.739 75.4327 115.286 76.0623 129.94 76.1064C144.821 76.1513 159.616 75.5925 173.297 74.4346C161.114 56.017 145.605 43.6456 130.237 37.6211ZM159.242 40.9785C169.438 49.2341 178.815 59.989 186.606 73.0703C194.976 72.0512 202.724 70.777 209.563 69.2432C195.448 55.8603 178.246 46.0068 159.242 40.9785ZM101.231 40.9785C82.2704 45.9956 65.1031 55.8164 51.0059 69.1533C57.8298 70.6253 65.5834 71.8756 73.9736 72.8936C81.7441 59.8923 91.0815 49.1969 101.231 40.9785ZM130.237 12.0312C125.763 12.0314 122.807 15.3416 122.807 18.623C122.807 21.9045 125.763 25.2147 130.237 25.2148C134.712 25.2146 137.669 21.9044 137.669 18.623C137.669 15.3416 134.712 12.0315 130.237 12.0312Z" fill="black"/>
</svg>
